ffmpeg version 3.4.8-0ubuntu0.2 Copyright (c) 2000-2020 the FFmpeg developers
  built with gcc 7 (Ubuntu 7.5.0-3ubuntu1~18.04)
  configuration: --prefix=/usr --extra-version=0ubuntu0.2 --toolchain=hardened --libdir=/usr/lib/x86_64-linux-gnu --incdir=/usr/include/x86_64-linux-gnu --enable-gpl --disable-stripping --enable-avresample --enable-avisynth --enable-gnutls --enable-ladspa --enable-libass --enable-libbluray --enable-libbs2b --enable-libcaca --enable-libcdio --enable-libflite --enable-libfontconfig --enable-libfreetype --enable-libfribidi --enable-libgme --enable-libgsm --enable-libmp3lame --enable-libmysofa --enable-libopenjpeg --enable-libopenmpt --enable-libopus --enable-libpulse --enable-librubberband --enable-librsvg --enable-libshine --enable-libsnappy --enable-libsoxr --enable-libspeex --enable-libssh --enable-libtheora --enable-libtwolame --enable-libvorbis --enable-libvpx --enable-libwavpack --enable-libwebp --enable-libx265 --enable-libxml2 --enable-libxvid --enable-libzmq --enable-libzvbi --enable-omx --enable-openal --enable-opengl --enable-sdl2 --enable-libdc1394 --enable-libdrm --enable-libiec61883 --enable-chromaprint --enable-frei0r --enable-libopencv --enable-libx264 --enable-shared
  libavutil      55. 78.100 / 55. 78.100
  libavcodec     57.107.100 / 57.107.100
  libavformat    57. 83.100 / 57. 83.100
  libavdevice    57. 10.100 / 57. 10.100
  libavfilter     6.107.100 /  6.107.100
  libavresample   3.  7.  0 /  3.  7.  0
  libswscale      4.  8.100 /  4.  8.100
  libswresample   2.  9.100 /  2.  9.100
  libpostproc    54.  7.100 / 54.  7.100
[rawvideo @ 0x564bf4af9a20] Estimating duration from bitrate, this may be inaccurate
Input #0, rawvideo, from '../../SVC-Encoder-20220109T061506Z-001/SVC-Encoder/Dataset/RollerCoaster/6f_2x2/tile_yuv/f3_t2_480x480.yuv':
  Duration: 00:00:10.00, start: 0.000000, bitrate: 82944 kb/s
    Stream #0:0: Video: rawvideo (I420 / 0x30323449), yuv420p, 480x480, 82944 kb/s, 30 tbr, 30 tbn, 30 tbc
Stream mapping:
  Stream #0:0 -> #0:0 (rawvideo (native) -> h264 (libx264))
Press [q] to stop, [?] for help
[libx264 @ 0x564bf4b06c60] using cpu capabilities: MMX2 SSE2Fast LZCNT SSSE3 SSE4.2 AVX
[libx264 @ 0x564bf4b06c60] profile High, level 3.0
Output #0, rawvideo, to 'RollerCoaster_f3_t2_480x480_x264_QP_40.h264':
  Metadata:
    encoder         : Lavf57.83.100
    Stream #0:0: Video: h264 (libx264), yuv420p, 480x480, q=-1--1, 30 fps, 30 tbn, 30 tbc
    Metadata:
      encoder         : Lavc57.107.100 libx264
    Side data:
      cpb: bitrate max/min/avg: 0/0/0 buffer size: 0 vbv_delay: -1
frame=  179 fps=0.0 q=46.0 PSNR=Y:nan U:nan V:nan *:nan size=      15kB time=00:00:04.53 bitrate=  27.0kbits/s speed=9.07x    frame=  300 fps=0.0 q=46.0 LPSNR=Y:inf U:inf V:inf *:inf size=      31kB time=00:00:09.93 bitrate=  25.3kbits/s speed=  11x    
video:31kB audio:0kB subtitle:0kB other streams:0kB global headers:0kB muxing overhead: 0.000000%
[libx264 @ 0x564bf4b06c60] frame I:2     Avg QP:37.63  size:  5720  PSNR Mean Y:35.50 U:42.33 V:40.02 Avg:36.69 Global:36.62
[libx264 @ 0x564bf4b06c60] frame P:77    Avg QP:38.72  size:   157  PSNR Mean Y:34.52 U:41.74 V:39.58 Avg:35.76 Global:35.74
[libx264 @ 0x564bf4b06c60] frame B:221   Avg QP:45.45  size:    36  PSNR Mean Y:34.40 U:41.74 V:39.58 Avg:35.66 Global:35.63
[libx264 @ 0x564bf4b06c60] consecutive B-frames:  0.7%  2.7%  2.0% 94.7%
[libx264 @ 0x564bf4b06c60] mb I  I16..4: 49.7% 41.2%  9.1%
[libx264 @ 0x564bf4b06c60] mb P  I16..4:  0.1%  0.1%  0.0%  P16..4:  9.2%  0.2%  0.0%  0.0%  0.0%    skip:90.4%
[libx264 @ 0x564bf4b06c60] mb B  I16..4:  0.0%  0.0%  0.0%  B16..8:  1.8%  0.0%  0.0%  direct: 0.0%  skip:98.2%  L0:40.8% L1:59.2% BI: 0.0%
[libx264 @ 0x564bf4b06c60] 8x8 transform intra:40.8% inter:95.2%
[libx264 @ 0x564bf4b06c60] coded y,uvDC,uvAC intra: 31.7% 47.7% 13.4% inter: 0.1% 0.2% 0.0%
[libx264 @ 0x564bf4b06c60] i16 v,h,dc,p: 47% 30% 12% 11%
[libx264 @ 0x564bf4b06c60] i8 v,h,dc,ddl,ddr,vr,hd,vl,hu: 21% 20% 25%  6%  3%  5%  5%  6%  9%
[libx264 @ 0x564bf4b06c60] i4 v,h,dc,ddl,ddr,vr,hd,vl,hu: 30% 21% 18%  9%  3%  3%  3%  7%  5%
[libx264 @ 0x564bf4b06c60] i8c dc,h,v,p: 66% 13% 15%  5%
[libx264 @ 0x564bf4b06c60] Weighted P-Frames: Y:2.6% UV:0.0%
[libx264 @ 0x564bf4b06c60] ref P L0: 65.8% 14.2% 13.6%  6.2%  0.1%
[libx264 @ 0x564bf4b06c60] ref B L0: 55.6% 40.1%  4.3%
[libx264 @ 0x564bf4b06c60] ref B L1: 71.6% 28.4%
[libx264 @ 0x564bf4b06c60] PSNR Mean Y:34.436 U:41.745 V:39.582 Avg:35.692 Global:35.667 kb/s:25.16
